<svg width="834" height="834" viewBox="0 0 834 834" fill="none" xmlns="http://www.w3.org/2000/svg">
<rect width="834" height="834" rx="10" fill="#F3F6FF"/>
<path d="M454 464.5H642L612 641.5H438.5L424 640L519.5 569.5L506.5 533.5L443.744 524.5L454 464.5Z" fill="white" stroke="white" stroke-width="2"/>
<path d="M503.5 540.5L506.5 533.5L570 529.5L438.5 642L426 639.5L432.5 587.5L450 579.5L459 580.5L463.5 584L466.5 590.5L472 597.5L477 595.5L472 573.5L466.5 570L457 563L471 561.5L477 568.5L489 578L493 576L489 568.5L484.5 558.5L502 564.5L506.5 563V558.5L487 541.5L503.5 540.5Z" fill="white" stroke="white" stroke-width="2"/>
<path d="M492.5 432.5L508.5 463.5H456L443.5 524.5L414 549L394.5 562L351 567.5L308.5 569.5L310.5 556L234.5 551.5L244.5 465.5C243.7 441.9 264.167 424 274.5 418L341 401.5L346 383C369.2 395.8 393.333 391 402.5 387L405.5 405.5H415.5L462.5 415L473.5 417L483.5 422L492.5 432.5Z" fill="#858DF3" stroke="white" stroke-width="2"/>
<path d="M784 268V192L723.2 193.621L708 194.027V268H784Z" fill="white"/>
<path d="M644.5 296C650.1 293.6 697.833 295 721 296V371.5H644.5C642.166 347.333 638.9 298.4 644.5 296Z" fill="white"/>
<path d="M784 268V192L723.2 193.621L708 194.027V268H784Z" stroke="white" stroke-width="2"/>
<path d="M644.5 296C650.1 293.6 697.833 295 721 296V371.5H644.5C642.166 347.333 638.9 298.4 644.5 296Z" stroke="white" stroke-width="2"/>
<path d="M90.5004 459.5L104.5 458C118.1 458 122.834 473 123.501 480.5C119.501 498.5 106.5 503 97.0006 502H85.5006C65.9995 502 68.199 500.8 61.0001 486C53.8011 471.2 69.167 461.167 77.5004 458L90.5004 459.5Z" fill="#858DF3" stroke="white" stroke-width="2"/>
<path fill-rule="evenodd" clip-rule="evenodd" d="M706.247 191.063L705.143 192.092V230.988V269.884L706.469 270.593C707.58 271.188 714.027 271.303 746.454 271.303H785.115L786.254 270.164L787.393 269.024V230.556C787.393 194.296 787.342 192.037 786.501 191.195C784.995 189.69 707.857 189.563 706.247 191.063ZM782.143 193.5L783.393 193.848L783.643 230.445L783.893 267.042L782.444 267.548C780.427 268.25 710.925 268.239 709.61 267.535C708.526 266.955 708.056 197.662 709.117 194.871C709.723 193.279 776.818 192.019 782.143 193.5ZM767.542 211.393C767.073 211.516 766.558 212.033 766.397 212.541C766.151 213.316 764.583 215.571 762.717 217.834C762.476 218.127 761.99 218.914 761.638 219.584C761.285 220.254 760.174 221.815 759.167 223.053C758.161 224.29 756.625 226.428 755.753 227.803C754.882 229.178 753.882 230.63 753.531 231.03C753.18 231.43 752.218 232.783 751.393 234.035C750.568 235.288 748.937 237.595 747.768 239.162C746.599 240.728 745.643 242.151 745.643 242.322C745.643 248.482 740.78 247.279 732.728 239.129C725.128 231.437 724.231 230.762 722.899 231.737C721.594 232.691 722.095 233.328 731.245 242.347C742.358 253.301 742.2 253.251 746.357 247.055C747.591 245.215 748.948 243.422 749.372 243.07C749.796 242.718 750.143 242.231 750.143 241.987C750.143 241.744 751.556 239.578 753.283 237.174C755.01 234.77 757.266 231.565 758.296 230.053C759.326 228.54 761.626 225.278 763.406 222.803C771.498 211.554 771.98 210.225 767.542 211.393ZM379.643 230.792C370.447 231.404 367.349 231.816 366.393 232.555C366.118 232.767 364.431 233.101 362.643 233.296C360.856 233.491 358.463 234.055 357.326 234.548C356.189 235.042 354.277 235.606 353.076 235.803C351.876 236 350.556 236.444 350.143 236.79C349.731 237.136 348.726 237.578 347.909 237.772C346.394 238.134 341.496 240.228 340.143 241.093C339.731 241.357 338.606 241.93 337.643 242.366C335.805 243.2 335.728 243.261 332.139 246.718C328.569 250.158 324.37 256.102 323.858 258.441C323.694 259.19 323.253 260.478 322.877 261.303C322.502 262.128 322.067 263.422 321.91 264.178L321.624 265.553H228.912H136.199L134.796 266.759L133.393 267.966L133.143 351.884L132.893 435.803L90.9897 436.053L49.0858 436.303L48.1258 437.553C46.6248 439.507 46.6248 520.099 48.1258 522.053L49.0858 523.303L90.9897 523.553L132.893 523.803L133.143 565.153C133.445 614.981 125.702 607.776 179.116 607.936L223.539 608.069L224.386 609.361C224.864 610.091 225.511 612.791 225.871 615.561C226.293 618.804 226.871 621.052 227.576 622.194C228.163 623.144 228.643 624.165 228.643 624.465C228.643 625.107 230.647 628.278 232.174 630.053C232.765 630.74 233.394 631.54 233.571 631.829C234.107 632.706 240.157 637.553 240.715 637.553C241.001 637.553 241.808 638.003 242.507 638.553C243.206 639.103 244.098 639.553 244.488 639.553C244.879 639.553 246.221 640.019 247.472 640.589C251.636 642.486 260.635 642.394 266.643 640.392C267.881 639.98 270.018 639.265 271.393 638.803C272.768 638.342 274.793 637.731 275.893 637.447C276.993 637.162 278.818 636.507 279.948 635.991C281.078 635.475 282.428 635.043 282.948 635.031C283.468 635.019 284.793 634.666 285.893 634.248C286.993 633.829 289.12 633.145 290.618 632.728C292.117 632.311 293.798 631.651 294.355 631.261C294.911 630.871 296.047 630.551 296.88 630.548C297.712 630.546 299.518 629.99 300.893 629.314C302.268 628.637 303.956 628.072 304.643 628.057C305.331 628.043 306.853 627.595 308.025 627.063C309.198 626.531 310.998 625.94 312.025 625.751C313.053 625.561 314.677 624.989 315.636 624.479C316.594 623.97 317.944 623.548 318.636 623.542C319.327 623.536 320.878 623.084 322.083 622.537C323.287 621.991 325.199 621.405 326.333 621.235C327.466 621.065 329.068 620.533 329.893 620.053C330.718 619.573 332.406 619.028 333.643 618.841C334.881 618.655 336.403 618.169 337.026 617.761C337.649 617.353 339.111 616.813 340.276 616.56C343.128 615.94 348.429 614.175 350.948 613.006C352.078 612.482 353.766 612.051 354.698 612.049C355.63 612.048 357.068 611.599 357.893 611.053C358.718 610.506 360.01 610.058 360.763 610.056C361.516 610.054 363.243 609.631 364.6 609.115C366.9 608.241 369.032 608.173 396.113 608.101L425.16 608.024L426.38 609.244C427.418 610.282 427.532 610.696 427.149 612.033C426.901 612.896 426.552 615.222 426.372 617.202C426.193 619.183 425.749 622.04 425.386 623.553C425.024 625.065 424.577 627.765 424.393 629.553C424.21 631.34 423.741 634.073 423.352 635.625C422.334 639.68 422.444 641.399 423.811 642.766L424.978 643.933L518.463 644.015C569.879 644.06 612.324 643.952 612.785 643.775C614.556 643.096 615.729 640.205 615.976 635.916C616.106 633.654 616.528 631.015 616.912 630.053C617.297 629.09 617.948 625.94 618.359 623.053C619.547 614.702 620.645 608.061 621.416 604.553C621.809 602.765 622.449 598.715 622.837 595.553C623.226 592.39 623.776 589.21 624.06 588.484C624.343 587.759 624.812 584.637 625.1 581.547C625.389 578.456 625.835 575.674 626.091 575.365C626.348 575.056 626.911 571.99 627.342 568.553C627.773 565.115 628.455 560.728 628.857 558.803C629.26 556.878 629.82 553.728 630.101 551.803C630.382 549.878 630.97 545.828 631.407 542.803C631.844 539.778 632.553 536.184 632.983 534.817C633.412 533.449 633.955 530.074 634.19 527.317C634.425 524.559 634.95 521.372 635.358 520.235C635.765 519.098 636.25 516.061 636.436 513.485C636.621 510.91 637.068 508.074 637.43 507.184C637.791 506.294 638.321 503.481 638.606 500.934C638.892 498.387 639.575 494.278 640.124 491.803C640.673 489.328 641.136 486.178 641.154 484.803C641.172 483.428 641.515 481.403 641.916 480.303C642.317 479.203 642.872 476.165 643.149 473.553C643.425 470.94 643.788 467.76 643.954 466.485C644.593 461.596 643.743 461.441 617.448 461.651C596.597 461.818 596.646 461.825 598.2 458.935C598.581 458.225 599.808 455.881 600.927 453.724C604.308 447.205 605.074 446.147 606.667 445.797C607.473 445.621 608.255 445.276 608.406 445.032C608.557 444.788 611.428 443.228 614.787 441.565C618.145 439.902 622.356 437.736 624.143 436.75C627.626 434.829 630.986 434.396 631.754 435.769C633.2 438.352 640 437.625 640.789 434.802C641.02 433.977 641.624 431.953 642.132 430.303C642.64 428.653 643.194 426.323 643.364 425.125C643.533 423.928 643.974 422.353 644.344 421.625C644.714 420.898 645.283 418.744 645.61 416.838C645.936 414.933 646.435 412.942 646.718 412.413C647.537 410.882 648.749 401.01 648.402 398.693C648.087 396.584 645.935 392.999 642.947 389.603C639.73 385.948 633.875 379.778 633.026 379.149C631.566 378.068 631.99 376.16 634.393 373C635.631 371.373 636.643 369.924 636.643 369.78C636.643 369.134 639.995 366.253 640.537 366.434C640.888 366.551 641.143 367.553 641.143 368.817C641.143 370.4 641.473 371.381 642.35 372.4L643.556 373.803L680.943 373.922C719.181 374.044 721.634 373.938 722.605 372.124C723.607 370.252 723.025 294.72 722.001 293.695C720.55 292.245 644.367 292.056 642.585 293.499L641.393 294.463L641.143 316.792L640.893 339.121L638.62 341.212C635.364 344.206 633.23 345.993 629.857 348.547C628.227 349.782 626.106 351.529 625.143 352.43C624.181 353.331 622.572 354.684 621.569 355.436C620.565 356.187 613.75 361.753 606.423 367.803C593.677 378.328 590.376 380.746 589.493 380.207C589.274 380.073 589.116 358.439 589.144 332.133C589.221 260.175 589.342 267.201 588.018 266.445C587.123 265.934 573.149 265.752 519.675 265.553L452.457 265.303L452.011 263.581C451.765 262.634 451.245 261.403 450.854 260.845C450.463 260.287 450.143 259.499 450.143 259.093C450.143 258.688 449.581 257.501 448.893 256.455C448.206 255.409 447.032 253.597 446.286 252.428C444.505 249.641 438.015 243.328 436.127 242.546C435.311 242.208 434.643 241.735 434.643 241.496C434.643 241.069 432.629 239.893 429.143 238.284C428.181 237.84 426.478 237.044 425.36 236.515C424.242 235.986 423.09 235.553 422.799 235.553C422.508 235.553 421.286 235.125 420.082 234.602C418.878 234.079 416.661 233.489 415.155 233.29C413.65 233.091 411.944 232.618 411.365 232.238C410.68 231.79 407.531 231.378 402.353 231.06C397.975 230.791 393.156 230.482 391.643 230.374C390.131 230.266 384.731 230.454 379.643 230.792ZM444.595 256.629C444.877 257.438 445.566 258.682 446.125 259.394C446.685 260.105 447.145 261.164 447.146 261.745C447.148 262.327 447.481 263.439 447.887 264.217C448.293 264.995 448.858 267.583 449.142 269.967C449.426 272.352 450.022 276.032 450.466 278.146C451.471 282.928 451.314 283.347 448.392 283.676C444.007 284.171 444.08 286.003 448.552 287.702C453.171 289.457 453.056 292.881 448.386 292.663C443.955 292.456 443.878 292.567 444.047 298.906C444.225 305.592 444.682 306.921 446.945 307.345C449.055 307.741 450.057 307.374 450.558 306.02C452.522 300.711 453.791 317.16 452.625 332.803C452.399 335.828 451.948 342.24 451.621 347.053C451.295 351.865 450.843 356.035 450.615 356.318C450.388 356.602 449.87 358.402 449.464 360.318C448.222 366.178 444.635 372.553 442.579 372.553C442.237 372.553 441.493 372.964 440.925 373.468C437.83 376.211 415.01 376.397 410.735 373.713C410.099 373.314 408.239 372.771 406.602 372.507C404.966 372.244 402.787 371.598 401.76 371.073C400.733 370.547 399.047 369.964 398.013 369.778C396.979 369.592 395.3 369.015 394.282 368.496C393.264 367.977 392.086 367.546 391.663 367.537C391.239 367.529 389.768 366.968 388.393 366.292C387.018 365.615 385.64 365.06 385.329 365.057C385.019 365.055 384.498 364.73 384.17 364.335C383.842 363.94 382.858 363.466 381.984 363.281C381.109 363.096 379.692 362.519 378.834 361.999C377.977 361.478 376.998 361.053 376.66 361.053C376.321 361.053 375.293 360.696 374.374 360.26C370.922 358.622 369.35 361.048 371.815 364.208C377.624 371.655 386.38 378.175 397.101 383.037C402.909 385.671 390.993 390.016 377.893 390.04C375.693 390.044 372.993 389.797 371.893 389.492C370.793 389.186 367.981 388.64 365.643 388.278C361.039 387.565 355.615 385.824 353.651 384.428C352.975 383.947 352.19 383.544 351.907 383.534C351.624 383.524 350.493 382.745 349.393 381.803L347.393 380.091L347.504 376.197C347.613 372.363 348.114 368.478 349.069 364.053C349.336 362.815 349.79 359.439 350.078 356.55C350.366 353.662 350.931 349.949 351.335 348.3C351.738 346.652 352.218 343.278 352.4 340.803C352.696 336.793 354.045 330.425 354.887 329.062C355.059 328.785 355.918 328.585 356.796 328.619C363.94 328.891 372.728 323.594 369.692 320.847C368.788 320.029 369.011 319.927 363.466 323.691C361.522 325.011 351.811 324.812 350.274 323.421C349.746 322.944 349.085 322.553 348.805 322.553C348.186 322.553 343.823 317.671 342.948 316.001C342.603 315.342 342.074 314.353 341.772 313.803C339.625 309.888 337.49 303.443 336.784 298.742C336.424 296.348 338.554 293.359 342.893 290.17C343.168 289.968 344.181 289.41 345.143 288.931C346.106 288.451 347.231 287.846 347.643 287.586C356.01 282.315 359.159 283.336 368.393 294.311C371.167 297.608 374.539 298.37 379.549 296.834C380.838 296.439 382.959 295.975 384.262 295.804C385.565 295.633 386.96 295.164 387.362 294.763C387.764 294.361 389.125 293.839 390.386 293.604C391.647 293.368 393.065 292.839 393.536 292.427C394.008 292.016 395.237 291.408 396.268 291.077C397.3 290.746 398.143 290.313 398.143 290.114C398.143 289.916 398.987 289.456 400.018 289.092C401.05 288.728 402.311 288.064 402.822 287.616C403.61 286.926 405.189 286.803 413.232 286.803C425.476 286.803 428.058 284.649 417.695 283.081C412.769 282.335 411.677 281.353 414.268 280.001C414.887 279.678 415.731 279.112 416.143 278.743C416.556 278.374 417.521 277.561 418.289 276.937C425.487 271.085 427.976 268.829 434.453 262.279C442.466 254.176 443.533 253.582 444.595 256.629ZM162.857 277.513C163.687 278.429 163.677 278.499 162.653 279.048C161.013 279.925 159.779 278.784 160.958 277.481C161.977 276.355 161.807 276.353 162.857 277.513ZM173.591 277.455C174.31 278.799 173.535 279.67 171.971 279.278C169.978 278.777 170.517 277.369 173.001 276.587C173.06 276.568 173.325 276.959 173.591 277.455ZM152.633 277.79C153.138 278.399 153.015 278.633 151.931 279.127C150.418 279.816 149.31 279.141 149.811 277.836C150.191 276.847 151.828 276.82 152.633 277.79ZM437.703 291.428C436.425 292.491 435.668 297.103 435.653 303.905L435.643 308.508L439.046 311.405C445.078 316.541 445.12 317.028 440.053 323.085C438.131 325.382 437.695 326.717 438.672 327.32C439.801 328.018 441.6 326.954 443.701 324.346C447.431 319.715 447.642 319.386 447.699 318.076C447.839 314.837 447.527 314.273 443.303 310.135C439.089 306.006 439.052 305.947 439.314 303.885C439.459 302.74 439.859 299.626 440.203 296.964C440.98 290.935 440.247 289.31 437.703 291.428ZM320.281 291.678C320.996 292.217 321.129 293.701 321.251 302.553L321.393 312.802L317.77 313.164C315.777 313.363 313.527 313.839 312.77 314.221C312.013 314.604 310.156 315.073 308.643 315.265C307.131 315.456 305.443 315.902 304.893 316.257C304.343 316.611 302.993 317.189 301.893 317.54C300.793 317.892 299.556 318.46 299.143 318.803C298.731 319.146 297.567 319.691 296.558 320.015C295.549 320.339 294.453 320.93 294.122 321.328C293.791 321.727 293.267 322.057 292.957 322.062C292.647 322.067 291.381 322.745 290.143 323.569C288.906 324.393 287.47 325.345 286.952 325.685C285.289 326.777 279.421 331.752 277.883 333.375C272.63 338.919 269.143 343.149 269.143 343.98C269.143 344.21 268.706 344.793 268.172 345.277C267.637 345.761 267.057 346.806 266.883 347.599C266.709 348.392 266.374 349.16 266.14 349.305C265.475 349.716 262.763 355.371 262.367 357.171C262.172 358.06 261.68 359.295 261.274 359.915C259.087 363.252 259.117 386.496 261.312 388.983C261.709 389.434 262.19 390.752 262.38 391.913C262.571 393.074 263.158 394.572 263.685 395.242C264.212 395.912 264.643 396.775 264.643 397.159C264.643 397.544 265.206 398.621 265.893 399.553C266.581 400.485 267.143 401.506 267.143 401.822C267.143 402.139 267.593 402.805 268.143 403.303C268.693 403.8 269.143 404.424 269.143 404.687C269.143 405.237 273.472 410.403 276.256 413.173L278.134 415.043L276.514 415.82C275.623 416.247 273.768 417.252 272.393 418.053C271.018 418.853 269.162 419.859 268.268 420.287C267.374 420.716 266.643 421.261 266.643 421.499C266.643 421.737 265.976 422.208 265.161 422.545C263.422 423.266 256.634 429.891 254.205 433.239C251.958 436.336 257.333 436.094 194.143 435.94L137.893 435.803L137.767 363.833C137.666 306.588 137.768 291.782 138.267 291.466C139.396 290.749 319.327 290.958 320.281 291.678ZM408.505 292C403.574 293.627 403.043 295.089 407.145 295.745L409.127 296.062L408.821 298.985C408.507 301.989 410.26 306.452 411.816 306.612C415.073 306.946 417.026 303.436 416.72 297.803C416.655 296.615 416.95 296.126 418.141 295.451C422.874 292.768 414.866 289.9 408.505 292ZM584.518 291.368L585.643 291.669V337.079C585.643 386.92 585.856 383.878 582.127 387.366C579.277 390.032 578.112 391.993 576.954 396.074C575.734 400.378 574.13 405.167 573.363 406.803C572.976 407.628 572.223 409.653 571.69 411.303C570.057 416.353 569.163 418.744 568.386 420.13C567.978 420.86 567.643 421.718 567.643 422.036C567.643 422.725 565.625 427.304 563.78 430.803C562.492 433.244 557.114 440.839 555.303 442.774C554.399 443.74 551.438 447.663 549.809 450.053C549.341 450.74 548.588 451.64 548.135 452.053C547.683 452.465 545.888 454.573 544.148 456.737C539.865 462.06 540.716 461.866 522.518 461.654L507.143 461.476L506.844 460.285C506.68 459.63 506.231 458.833 505.848 458.515C505.464 458.197 504.903 457.006 504.6 455.87C504.298 454.733 503.756 453.465 503.396 453.053C503.037 452.64 502.514 451.462 502.235 450.434C501.956 449.406 501.371 448.209 500.935 447.773C500.5 447.338 500.143 446.465 500.143 445.834C500.143 445.204 499.693 444.116 499.143 443.416C498.593 442.717 498.143 441.977 498.143 441.772C498.143 440.903 493.295 430.927 491.832 428.787C488.763 424.296 482.34 418.735 479.143 417.8C478.456 417.599 477.556 417.143 477.143 416.786C476.731 416.429 475.493 415.973 474.393 415.772C473.293 415.571 471.547 415.111 470.514 414.75C469.48 414.389 466.218 413.835 463.264 413.518C460.31 413.202 457.321 412.648 456.621 412.288C455.922 411.928 453.672 411.487 451.621 411.308C449.571 411.129 446.431 410.572 444.643 410.069C442.856 409.567 439.706 409.005 437.643 408.821C435.581 408.637 432.935 408.166 431.764 407.774C430.592 407.382 427.587 406.83 425.085 406.546C422.584 406.263 420.124 405.81 419.619 405.54C419.115 405.27 416.383 404.79 413.548 404.474C407.02 403.746 407.077 403.806 406.325 396.934C405.986 393.837 405.473 389.278 405.185 386.803C404.04 376.967 404.369 375.175 407.068 376.551C408.072 377.063 410.243 377.633 411.893 377.817C413.543 378.001 415.897 378.48 417.124 378.882C426.259 381.875 443.043 378.868 447.715 373.401C449.159 371.711 451.947 366.016 452.329 363.978C452.516 362.975 452.989 361.512 453.379 360.728C453.768 359.944 454.336 356.848 454.64 353.848C454.945 350.848 455.461 347.923 455.789 347.348C456.557 345.998 456.914 307.479 456.241 298.553C455.931 294.439 455.94 292.089 456.268 291.678C456.792 291.02 582.089 290.717 584.518 291.368ZM353.685 293.475C353.323 294.151 353.417 294.72 354.033 295.6C355.164 297.213 354.873 298.427 352.811 300.709C350.293 303.496 351.644 306.737 354.264 304.196C357.657 300.904 357.327 300.936 358.785 303.762C359.505 305.159 360.239 306.905 360.414 307.642C360.791 309.221 361.971 309.818 363.01 308.956C364.107 308.046 363.62 303.566 362.233 301.803C361.634 301.041 361.143 300.033 361.143 299.563C361.143 299.093 360.693 298.3 360.143 297.803C359.593 297.305 359.143 296.675 359.143 296.403C359.143 294.282 354.567 291.827 353.685 293.475ZM717.923 296.262C719.444 297.375 719.444 368.729 717.923 369.843C716.547 370.849 646.564 370.912 645.73 369.907C644.751 368.728 644.936 297.332 645.92 296.347C647.058 295.21 716.371 295.128 717.923 296.262ZM660.801 309.556C658.804 310.361 658.643 311.475 658.643 324.484C658.643 340.942 655.584 339.166 683.566 338.955L703.739 338.803L704.968 337.303L706.197 335.803L705.979 323.999C705.744 311.31 705.483 310.029 702.995 309.362C701.234 308.89 662.007 309.07 660.801 309.556ZM701.352 313.61L702.695 314.666L702.598 323.985C702.491 334.217 702.253 335.306 700.024 335.752C697.484 336.26 664.314 336.093 662.926 335.565L661.643 335.078L661.651 324.69C661.659 314.257 661.762 313.443 663.143 312.917C665.686 311.949 700.032 312.572 701.352 313.61ZM416.243 329.653C415.913 329.983 415.649 330.489 415.656 330.778C415.671 331.387 420.185 334.553 421.038 334.553C421.354 334.553 422.463 334.994 423.503 335.534C426.136 336.9 433.014 337.434 434.393 336.379C435.909 335.219 434.448 334.056 430.828 333.539C427.126 333.011 421.713 331.122 420.539 329.949C419.517 328.926 417.134 328.762 416.243 329.653ZM660.819 345.541C655.789 347.609 660.597 348.127 683.244 347.956C704.112 347.799 705.914 347.625 704.219 345.928C703.469 345.178 662.588 344.814 660.819 345.541ZM641.244 349.481C641.387 354.189 641.272 355.675 640.657 357.074C639.978 358.62 637.605 362.039 630.621 371.529C626.329 377.362 626.267 378.024 629.705 381.335C645.486 396.539 646.179 398.013 643.202 410.053C642.624 412.39 641.668 416.44 641.077 419.053C640.486 421.665 639.604 424.815 639.118 426.053C638.631 427.29 638.075 429.374 637.881 430.683C637.587 432.664 637.319 433.115 636.282 433.375C634.025 433.942 633.429 430.344 634.902 425.037C635.319 423.533 636 420.165 636.415 417.553C636.83 414.94 637.486 411.903 637.872 410.803C639.108 407.28 639.276 403.328 638.229 402.38C636.45 400.771 635.238 403.156 633.693 411.303C630.024 430.651 629.895 430.984 626.684 429.324C624.758 428.328 624.538 423.883 626.104 417.636C626.633 415.528 627.222 411.778 627.413 409.303C627.603 406.828 628.025 404.015 628.349 403.053C629.188 400.564 628.672 398.84 627.032 398.648C625.334 398.449 624.753 399.519 624.17 403.918C621.344 425.282 620.901 426.545 617.456 423.093L615.893 421.527L615.961 412.415C616.003 406.795 616.295 402.057 616.724 400.053C617.606 395.921 617.422 394.55 615.983 394.56C613.884 394.575 613.506 395.302 612.826 400.631C612.463 403.475 611.941 407.265 611.665 409.053C610.193 418.589 612.742 426.68 617.602 427.9C624.43 429.614 624.15 432.949 616.893 436.333C616.068 436.718 615.056 437.249 614.643 437.513C614.231 437.777 612.138 438.85 609.993 439.898C600.863 444.358 601.653 443.557 596.91 453.154C592.257 462.57 595.694 461.52 568.993 461.681C544.802 461.827 543.877 461.74 546.542 459.573C547.535 458.766 551.68 453.773 553.393 451.322C553.943 450.535 554.956 449.25 555.643 448.465C556.331 447.681 557.279 446.536 557.749 445.921C558.22 445.306 559.689 443.453 561.013 441.803C566.097 435.469 569.132 429.875 572.679 420.303C575.185 413.542 576.756 409.094 577.36 407.053C577.726 405.815 578.389 404.128 578.832 403.303C579.275 402.478 579.638 401.324 579.64 400.738C579.643 399.826 581.33 395.445 582.598 393.061C582.996 392.312 585.432 390.8 588.625 389.318C589.577 388.876 590.702 388.203 591.125 387.823C591.548 387.442 592.495 386.98 593.231 386.797C593.967 386.613 594.959 386.033 595.434 385.508C595.909 384.983 596.683 384.553 597.153 384.553C597.624 384.553 598.545 384.153 599.201 383.665C599.857 383.177 602.081 381.92 604.143 380.872C606.206 379.824 609.356 378.173 611.143 377.202C617.207 373.91 618.543 374.128 617.969 378.318C617.401 382.46 614.763 385.454 603.306 394.964C599.624 398.02 599.293 398.825 600.555 401.65C601.77 404.369 602.746 410.553 602.829 416.053L602.893 420.303L604.339 420.468C606.938 420.764 607.845 410 605.632 405.123C605.088 403.924 604.643 401.979 604.643 400.8C604.643 398.525 604.575 398.609 609.977 394.303C613.798 391.257 620.062 384.674 621.188 382.521C624.746 375.718 620.053 367.12 614.792 370.805C614.201 371.219 612.182 372.367 610.305 373.356C608.429 374.346 606.556 375.452 606.143 375.815C605.065 376.764 602.815 377.235 602.42 376.595C602.236 376.298 602.659 375.796 603.365 375.475C604.068 375.154 604.643 374.591 604.643 374.222C604.643 373.854 604.86 373.553 605.126 373.553C605.392 373.553 606.263 372.934 607.063 372.178C607.862 371.422 609.247 370.24 610.141 369.553C611.035 368.865 612.28 367.853 612.909 367.303C613.538 366.753 614.758 365.74 615.621 365.053C616.483 364.365 617.734 363.353 618.399 362.803C621.489 360.25 622.69 359.28 626.893 355.949C629.368 353.987 631.878 351.914 632.471 351.342C633.064 350.771 634.189 349.803 634.971 349.191C640.678 344.731 641.1 344.75 641.244 349.481ZM660.105 354.983L658.917 355.945L660.905 356.53C663.788 357.379 703.34 357.057 704.219 356.178C706.4 353.995 662.784 352.814 660.105 354.983ZM601.143 378.303C601.143 378.44 601.031 378.553 600.893 378.553C600.756 378.553 600.643 378.44 600.643 378.303C600.643 378.165 600.756 378.053 600.893 378.053C601.031 378.053 601.143 378.165 601.143 378.303ZM347.627 385.783C347.961 386.185 348.719 386.666 349.313 386.852C349.907 387.038 350.93 387.609 351.586 388.122C352.242 388.634 353.098 389.053 353.488 389.053C353.879 389.053 355.142 389.475 356.296 389.991C357.449 390.508 359.518 391.087 360.893 391.278C362.268 391.469 364.631 392.003 366.143 392.464C370.088 393.667 388.168 393.692 390.393 392.497C391.218 392.054 392.878 391.541 394.082 391.356C395.285 391.172 397.269 390.435 398.49 389.72C401.742 387.814 401.582 387.369 402.966 402.108C403.367 406.371 399.381 411.541 395.683 411.556C395.248 411.558 394.227 411.906 393.413 412.331C389.773 414.229 366.177 414.51 361.407 412.712C360.299 412.295 358.156 411.658 356.643 411.298C355.131 410.937 352.752 410.003 351.357 409.223C343.356 404.744 342.38 402.626 344.379 394.078C344.8 392.277 345.273 389.509 345.43 387.928C345.723 384.979 346.406 384.312 347.627 385.783ZM343.436 407.303C345.737 409.64 347.929 411.553 348.307 411.553C348.685 411.553 350.052 412.115 351.345 412.803C352.638 413.49 354.106 414.053 354.606 414.053C355.107 414.053 356.501 414.482 357.705 415.006C358.908 415.53 362.143 416.204 364.893 416.504C367.643 416.803 371.693 417.298 373.893 417.602C378.712 418.269 391.911 416.688 395.448 415.021C396.578 414.489 397.828 414.053 398.225 414.053C399.031 414.053 403.278 411.1 403.6 410.315C404.883 407.193 411.865 406.037 415.41 408.36C415.969 408.726 418.106 409.166 420.16 409.337C422.213 409.508 425.468 410.06 427.393 410.563C429.318 411.067 432.356 411.63 434.143 411.814C435.931 411.999 438.964 412.578 440.883 413.101C442.803 413.625 445.292 414.053 446.414 414.053C447.537 414.053 450.129 414.485 452.174 415.013C454.22 415.541 457.468 416.135 459.393 416.332C461.318 416.529 463.732 416.986 464.757 417.346C465.782 417.706 468.032 418.153 469.757 418.34C472.397 418.625 476.814 420.125 478.943 421.458C486.844 426.405 488.305 428.376 495.131 443.303C496.011 445.228 497.252 447.928 497.888 449.303C498.524 450.678 499.769 453.49 500.654 455.553C501.54 457.615 502.51 459.608 502.81 459.982C504.349 461.898 502.497 462.053 478.101 462.053H454.749L453.278 463.428C451.967 464.653 451.77 465.238 451.467 468.803C451.28 471.003 450.808 473.719 450.419 474.838C450.029 475.957 449.554 478.882 449.364 481.338C449.173 483.794 448.706 486.703 448.325 487.803C447.944 488.903 447.421 491.94 447.161 494.553C446.901 497.165 446.358 500.238 445.954 501.382C445.551 502.525 445.067 505.338 444.88 507.632C444.693 509.926 444.114 513.476 443.592 515.522C443.07 517.567 442.643 519.711 442.643 520.286C442.643 521.794 441.456 523.271 438.805 525.06C436.327 526.732 432.224 530.225 427.947 534.303C419.516 542.342 406.521 552.881 400.203 556.803C399.76 557.078 398.834 557.669 398.145 558.116C397.457 558.563 396.106 559.096 395.143 559.301C394.181 559.506 392.807 559.973 392.09 560.339C391.373 560.705 388.336 561.249 385.34 561.549C382.344 561.849 379.106 562.328 378.143 562.613C377.181 562.898 371.162 563.443 364.769 563.824C358.375 564.205 352.732 564.738 352.227 565.008C351.723 565.278 345.479 565.749 338.352 566.056C331.224 566.362 322.503 566.937 318.971 567.333C315.438 567.729 312.355 568.053 312.118 568.053C311.071 568.053 311.029 564.343 312.039 561.109C312.607 559.29 313.21 556.255 313.378 554.363C313.547 552.471 313.994 550.324 314.373 549.591C314.752 548.858 315.221 546.581 315.415 544.531C315.609 542.48 316.078 540.042 316.458 539.112C316.837 538.181 317.355 535.594 317.609 533.362C317.863 531.129 318.464 528.178 318.945 526.803C320.271 523.013 320.238 516.303 318.893 516.303C318.082 516.303 317.788 516.821 317.338 519.053C317.032 520.565 316.413 523.025 315.963 524.519C315.512 526.012 315.143 528.212 315.143 529.406C315.143 530.6 314.712 532.806 314.184 534.307C313.656 535.808 313.076 538.559 312.894 540.42C312.713 542.28 312.132 545.097 311.604 546.68C311.075 548.262 310.643 550.212 310.643 551.014C310.643 553.983 310.508 554.053 304.711 554.053C301.783 554.053 298.601 553.826 297.64 553.549C296.679 553.272 290.943 552.819 284.893 552.543C278.843 552.267 271.033 551.701 267.537 551.286C264.041 550.871 256.279 550.308 250.287 550.034C236.739 549.415 236.757 549.419 236.349 547.243C235.991 545.334 236.482 541.288 237.246 539.861C237.523 539.343 237.956 535.518 238.209 531.361C238.462 527.204 238.998 522.79 239.399 521.553C239.801 520.315 240.344 515.882 240.606 511.701C240.868 507.521 241.318 503.661 241.605 503.124C241.893 502.587 242.376 498.808 242.679 494.725C242.982 490.643 243.542 486.29 243.923 485.053C244.304 483.815 244.871 479.203 245.183 474.803C245.495 470.403 245.944 466.436 246.181 465.989C246.419 465.541 246.854 462.619 247.149 459.495C247.463 456.162 247.991 453.346 248.427 452.681C248.836 452.057 249.386 450.41 249.649 449.022C249.913 447.633 250.451 446.174 250.845 445.78C251.239 445.386 251.705 444.409 251.881 443.61C252.056 442.81 252.637 441.761 253.172 441.277C253.706 440.793 254.143 440.175 254.143 439.902C254.143 438.184 261.001 430.167 265.562 426.553C266.43 425.865 267.715 424.796 268.417 424.178C269.12 423.559 269.986 423.053 270.342 423.053C270.697 423.053 271.372 422.629 271.841 422.11C272.31 421.592 273.376 421.031 274.209 420.865C275.043 420.698 276.299 420.11 277.001 419.557C277.704 419.005 278.637 418.553 279.076 418.553C279.515 418.553 281.003 418.129 282.384 417.61C285.153 416.57 289.595 415.379 294.787 414.284C296.654 413.89 298.59 413.349 299.09 413.081C299.589 412.814 301.55 412.353 303.446 412.056C305.342 411.76 308.188 411.076 309.77 410.535C311.353 409.995 313.201 409.553 313.877 409.553C314.553 409.553 316.183 409.134 317.5 408.622C318.816 408.111 321.11 407.536 322.596 407.345C324.083 407.154 325.904 406.685 326.643 406.303C327.382 405.921 329.203 405.447 330.689 405.25C332.175 405.052 334.516 404.486 335.892 403.99C337.268 403.494 338.587 403.081 338.823 403.071C339.059 403.061 341.135 404.965 343.436 407.303ZM248.643 441.273C248.643 442.22 248.421 443.131 248.15 443.299C247.878 443.466 247.289 444.886 246.839 446.453C246.39 448.02 245.816 449.562 245.563 449.878C245.311 450.194 244.887 451.882 244.622 453.628C244.357 455.374 243.814 458.265 243.415 460.053C243.016 461.84 242.51 464.412 242.291 465.768L241.893 468.233L221.893 468.3C210.893 468.337 187.831 468.412 170.643 468.468C138.895 468.57 137.785 468.638 138.36 470.449C139.018 472.522 139.804 472.553 191.664 472.553C248.108 472.553 242.684 472.071 241.414 476.973C241.011 478.53 240.529 481.153 240.344 482.803C240.158 484.453 239.804 486.197 239.557 486.678C239.134 487.502 236.261 487.553 190.001 487.56C138.167 487.568 138.393 487.558 138.393 489.797C138.393 491.454 140.391 491.52 190.359 491.527C245.024 491.534 240.138 491.043 238.984 496.416C238.525 498.553 237.921 503.228 237.641 506.803C237.069 514.101 236.84 515.5 235.778 518.178L235.035 520.053H143.573C56.9372 520.053 52.0928 520.007 51.7528 519.178C51.2833 518.034 51.2833 441.571 51.7528 440.428C52.0933 439.599 57.2612 439.553 150.378 439.553H248.643V441.273ZM77.2292 456.292C74.9392 456.664 72.6717 457.325 72.1902 457.76C71.7087 458.196 71.0878 458.553 70.8108 458.553C68.6548 458.553 60.2192 467.64 60.1352 470.053C60.1212 470.465 59.6748 471.703 59.1433 472.803C54.2353 482.963 64.0712 501.21 75.4542 503.063C76.9077 503.299 78.5428 503.731 79.0873 504.023C80.5073 504.783 84.1683 504.676 86.6433 503.803C87.8123 503.39 90.0633 503.053 91.6453 503.053C93.2268 503.053 95.3287 503.39 96.3162 503.803C97.3032 504.215 98.9903 504.553 100.064 504.553C101.139 504.553 102.974 504.215 104.143 503.803C105.312 503.39 106.747 503.049 107.331 503.045C107.915 503.041 108.956 502.717 109.643 502.325C110.331 501.933 111.568 501.26 112.393 500.829C116.494 498.686 120.988 493.755 122.215 490.053C122.534 489.09 123.155 487.75 123.594 487.075C125.781 483.715 123.976 470.571 120.839 467.013C120.456 466.579 120.143 465.978 120.143 465.678C120.143 464.988 113.603 459.053 112.843 459.053C112.532 459.053 111.702 458.6 110.998 458.046C108.852 456.358 100.511 455.229 96.1973 456.043C94.1098 456.436 91.4698 456.57 89.5618 456.378C82.3588 455.653 81.2127 455.645 77.2292 456.292ZM85.5112 459.96C85.9422 460.234 85.4638 460.909 83.9288 462.192C81.9643 463.834 78.6687 468.037 78.6277 468.953C78.6192 469.145 78.0587 470.428 77.3822 471.803C73.9137 478.854 76.9343 491.182 83.6078 497.211C89.2723 502.329 76.8402 501.55 70.0007 496.36C65.1527 492.68 61.9367 486.842 61.2947 480.553C60.6777 474.512 67.1493 463.324 72.1433 461.797C72.8308 461.587 73.9297 460.996 74.5857 460.484C75.8467 459.499 84.1577 459.101 85.5112 459.96ZM109.141 461.171C111.858 462.572 115.927 466.029 118.04 468.73C124.925 477.532 120.144 492.863 108.648 498.853C99.7643 503.481 83.8793 497.487 81.1833 488.489C80.8348 487.326 80.2173 485.867 79.8103 485.246C78.0703 482.591 79.8918 471.713 82.6303 468.408C84.4178 466.251 88.8673 462.053 89.3663 462.053C89.6648 462.053 90.9178 461.5 92.1508 460.825C95.8948 458.775 104.848 458.957 109.141 461.171ZM619.173 466.04C642.978 466.055 641.078 465.474 639.688 472.317C639.131 475.059 638.429 479.328 638.128 481.803C637.828 484.278 637.371 486.953 637.114 487.747C636.857 488.542 636.405 491.242 636.109 493.747C635.814 496.253 635.269 499.54 634.899 501.053C634.529 502.565 634.076 505.265 633.893 507.053C633.709 508.84 633.142 512.44 632.632 515.053C632.121 517.665 631.563 521.04 631.39 522.553C631.218 524.065 630.764 526.429 630.381 527.805C629.999 529.182 629.345 533.007 628.927 536.305C628.509 539.604 627.949 543.09 627.682 544.053C627.415 545.015 626.96 547.979 626.672 550.64C626.383 553.3 625.949 556 625.706 556.64C625.463 557.279 624.988 559.94 624.65 562.553C624.311 565.165 623.735 568.54 623.368 570.053C623.001 571.565 622.447 575.154 622.136 578.028C621.825 580.902 621.369 583.631 621.122 584.092C620.875 584.553 620.333 587.489 619.916 590.617C619.499 593.744 618.949 597.09 618.694 598.053C618.438 599.015 618.093 601.153 617.926 602.803C617.661 605.432 616.203 614.083 614.6 622.553C614.313 624.065 613.758 627.665 613.366 630.553C612.356 637.982 612.268 638.263 610.673 639.206C608.354 640.576 444.209 640.507 442.968 639.136C442.031 638.1 442.907 626.863 444.099 624.636C444.42 624.036 444.886 621.24 445.134 618.424C445.383 615.607 445.915 612.515 446.317 611.553C446.719 610.59 447.285 607.44 447.576 604.553C447.866 601.665 448.348 598.605 448.647 597.752C448.945 596.899 449.492 593.637 449.863 590.502C450.943 581.367 452.393 579.079 455.739 581.235C456.374 581.644 457.709 582.128 458.707 582.31C460.665 582.667 462.239 584.339 462.821 586.678C465.185 596.191 479.422 604.794 477.986 595.841C477.85 594.995 477.492 592.728 477.191 590.803C476.89 588.878 476.319 586.515 475.92 585.553C475.522 584.59 474.959 581.906 474.669 579.588C474.378 577.27 473.804 574.859 473.392 574.23C472.98 573.602 472.643 572.745 472.643 572.327C472.643 571.334 469.535 569.398 464.304 567.135C458.942 564.815 459.497 564.053 466.548 564.053H471.261L473.077 565.935C474.076 566.97 475.793 568.925 476.893 570.278C484.79 579.993 487.267 581.332 492.468 578.698C495.9 576.961 495.551 572.816 491.77 570.403C491.425 570.183 491.143 569.707 491.143 569.344C491.143 568.982 490.171 567.236 488.983 565.464C486.289 561.446 485.268 557.128 487.846 560.654C488.149 561.068 488.959 561.576 489.645 561.782C490.332 561.988 491.351 562.444 491.911 562.796C499.019 567.26 507.405 566.865 509.948 561.946C510.797 560.304 508.847 557.859 504.262 554.818C503.234 554.136 500.593 552.228 498.393 550.578C496.193 548.928 493.545 546.963 492.508 546.211C487.516 542.594 487.94 542.142 496.54 541.91C504.632 541.692 505.371 541.361 507.204 537.136C509.255 532.407 506.131 529.607 498.755 529.565C497.579 529.558 494.879 529.117 492.755 528.585C490.631 528.053 487.431 527.481 485.643 527.314C483.856 527.147 480.031 526.581 477.143 526.056C474.256 525.53 469.686 524.955 466.987 524.778C460.689 524.363 460.114 523.117 462.387 514.803C462.763 513.428 463.215 510.615 463.393 508.553C463.57 506.49 464.133 503.115 464.643 501.053C465.154 498.99 465.725 495.503 465.912 493.303C466.099 491.103 466.555 488.515 466.925 487.553C467.296 486.59 467.824 483.665 468.1 481.053C468.376 478.44 468.949 475.072 469.372 473.569C469.796 472.065 470.147 470.04 470.151 469.069C470.155 468.097 470.335 467.025 470.551 466.686C471.053 465.895 484.143 465.767 549.643 465.915C577.006 465.976 608.294 466.032 619.173 466.04ZM466.752 466.678C467.484 467.249 467.475 467.542 466.649 470.091C466.152 471.625 465.59 474.663 465.4 476.841C465.21 479.02 464.645 482.603 464.144 484.803C463.643 487.003 463.081 490.378 462.895 492.303C462.71 494.228 462.252 496.815 461.878 498.053C461.504 499.29 460.941 502.665 460.628 505.553C460.314 508.44 459.854 511.048 459.605 511.349C459.356 511.649 458.923 514.124 458.643 516.849C457.998 523.129 457.947 523.173 451.542 522.962C445.557 522.765 445.323 522.577 446.307 518.734C446.72 517.122 447.205 514.115 447.385 512.053C447.565 509.99 448.129 507.065 448.64 505.553C449.15 504.04 449.695 500.665 449.851 498.053C450.007 495.44 450.493 492.29 450.931 491.053C451.368 489.815 451.894 486.665 452.098 484.053C452.302 481.44 452.751 478.778 453.095 478.137C453.44 477.496 453.951 474.683 454.231 471.887C454.511 469.091 455 466.637 455.317 466.435C456.327 465.791 465.876 465.994 466.752 466.678ZM235.037 528.195C234.903 530.748 234.519 533.351 234.183 533.978C233.847 534.606 233.363 538.615 233.107 542.887C232.851 547.159 232.315 551.812 231.916 553.228C231.516 554.644 231.048 558.503 230.876 561.803C230.703 565.103 230.234 569.15 229.833 570.796C229.431 572.443 228.877 576.83 228.601 580.546C228.325 584.262 227.785 588.54 227.401 590.053C227.017 591.565 226.547 595.123 226.356 597.959C225.858 605.374 231.404 604.578 181.23 604.431L137.893 604.303L137.765 564.334C137.664 532.69 137.768 524.282 138.265 523.967C138.611 523.747 160.58 523.565 187.086 523.56L235.28 523.553L235.037 528.195ZM460.393 527.528C464.243 527.846 468.968 528.433 470.893 528.832C472.818 529.231 476.756 529.783 479.643 530.058C482.531 530.333 486.018 530.882 487.393 531.278C488.768 531.674 492.202 532.234 495.023 532.524C502.851 533.326 505.371 534.871 502.894 537.348L501.57 538.672L492.183 538.47C484.283 538.3 482.582 538.128 481.449 537.385C480.653 536.864 478.324 536.302 475.748 536.011C473.353 535.74 470.606 535.31 469.643 535.055C468.681 534.799 465.193 534.363 461.893 534.085C458.593 533.807 455.075 533.435 454.075 533.26C452.312 532.95 450.143 534.171 450.143 535.472C450.143 536.312 452.76 537.053 455.723 537.053C457.392 537.053 460.587 537.483 462.825 538.01C465.062 538.536 469.366 539.124 472.388 539.316C476.914 539.604 478.12 539.854 479.228 540.734C479.969 541.322 481.388 542.365 482.382 543.053C483.377 543.74 486.082 545.765 488.393 547.553C490.705 549.34 493.408 551.365 494.4 552.053C495.391 552.74 496.471 553.528 496.798 553.803C497.125 554.078 498.466 555.09 499.777 556.053C501.088 557.015 502.731 558.309 503.428 558.928C504.125 559.546 504.908 560.053 505.169 560.053C506.157 560.053 505.589 561.417 504.37 561.972C501.028 563.495 493.034 560.238 482.295 552.976C478.381 550.33 478.015 550.191 474.18 549.895C471.972 549.725 468.866 549.258 467.279 548.857C464.806 548.232 454.305 547.053 451.216 547.053C450.021 547.053 449.316 548.806 450.121 549.776C450.457 550.181 452.328 550.59 454.788 550.796C457.046 550.985 460.018 551.44 461.393 551.808C462.768 552.176 466.459 552.729 469.595 553.038C476.637 553.733 477.134 554.049 481.205 560.428C481.775 561.322 482.445 562.053 482.693 562.053C482.94 562.053 483.147 562.334 483.152 562.678C483.161 563.258 485.138 566.476 486.915 568.803C490.958 574.097 491.168 576.531 487.494 575.517C485.52 574.972 483.783 573.314 479.668 568.046C473.392 560.014 474.859 560.584 460.193 560.473C451.22 560.405 450.44 560.47 449.803 561.341C448.476 563.156 449.313 563.905 456.143 567.014C456.831 567.327 457.956 567.904 458.643 568.296C459.331 568.687 461.243 569.6 462.893 570.323C464.543 571.047 466.231 571.846 466.643 572.099C467.056 572.353 467.905 572.822 468.53 573.142C469.156 573.462 469.778 574.304 469.914 575.013C470.049 575.723 470.499 577.358 470.912 578.648C471.325 579.938 471.863 582.525 472.107 584.398C472.352 586.271 472.91 588.639 473.347 589.662C474.191 591.631 474.416 594.825 473.74 595.243C472.398 596.072 466.839 588.887 465.884 585.086C464.748 580.568 462.641 579.075 454.857 577.272C449.006 575.918 448.563 575.918 446.393 577.274C445.293 577.962 443.493 578.984 442.393 579.546C441.293 580.108 439.493 581.119 438.393 581.792C437.293 582.466 435.718 583.369 434.893 583.798C434.068 584.227 432.268 585.247 430.893 586.066C429.518 586.885 427.462 587.985 426.323 588.512C425.185 589.039 424.103 589.714 423.919 590.011C423.735 590.309 423.195 590.553 422.719 590.553C422.244 590.553 420.963 591.028 419.874 591.608C415.338 594.024 407.137 595.537 398.752 595.504C393.65 595.484 392.253 595.646 390.502 596.466C389.342 597.008 387.519 597.603 386.45 597.788C385.382 597.972 383.698 598.558 382.708 599.088C381.718 599.619 380.571 600.053 380.16 600.053C379.499 600.053 374.149 601.653 369.893 603.123C369.068 603.408 366.866 604.051 364.998 604.552C363.131 605.053 361.331 605.688 360.998 605.963C360.666 606.238 359.496 606.631 358.398 606.836C357.301 607.041 355.501 607.619 354.398 608.12C353.296 608.621 351.935 609.036 351.374 609.042C350.813 609.048 349.506 609.485 348.47 610.014C347.433 610.542 345.642 611.129 344.489 611.317C343.336 611.505 341.381 612.064 340.143 612.558C336.873 613.864 333.306 615.021 329.938 615.867C328.313 616.275 326.401 616.904 325.688 617.264C324.976 617.624 323.519 618.078 322.45 618.271C321.382 618.465 319.698 619.058 318.708 619.588C317.718 620.119 316.455 620.563 315.901 620.575C315.347 620.587 313.993 620.94 312.893 621.359C311.793 621.778 309.993 622.332 308.893 622.591C307.793 622.849 305.881 623.476 304.643 623.983C301.196 625.397 297.693 626.561 294.438 627.373C292.813 627.778 290.901 628.404 290.188 628.764C289.476 629.124 288.017 629.578 286.945 629.772C285.874 629.967 284.524 630.424 283.945 630.789C283.367 631.155 281.671 631.707 280.177 632.017C278.684 632.327 277.207 632.793 276.895 633.051C276.584 633.31 274.924 633.849 273.208 634.249C271.491 634.65 269.818 635.19 269.49 635.45C269.162 635.709 267.656 636.194 266.143 636.527C264.631 636.86 262.545 637.452 261.508 637.842C259.104 638.748 253.5 638.76 251.743 637.864C251.001 637.485 249.245 636.931 247.842 636.635C241.975 635.394 234.715 628.978 231.905 622.553C231.484 621.59 230.766 620.128 230.31 619.303C228.727 616.44 228.883 603.534 230.591 596.053C230.873 594.815 231.24 591.215 231.405 588.053C231.57 584.89 232.124 580.503 232.635 578.303C233.147 576.103 233.712 571.49 233.892 568.053C234.072 564.615 234.539 560.839 234.931 559.66C235.323 558.482 235.643 556.653 235.643 555.596C235.643 552.622 245.265 551.874 255.893 554.023C257.268 554.3 263.793 554.762 270.393 555.048C276.993 555.334 282.917 555.686 283.556 555.829C285.762 556.325 300.403 557.541 304.239 557.547C308.805 557.554 308.68 557.415 308.29 562.073C307.838 567.458 307.113 568.053 300.991 568.053C294.487 568.053 291.885 569.094 293.743 570.953C294.856 572.065 326.875 571.152 333.081 569.831C335.074 569.407 341.098 569.008 348.208 568.83C356.136 568.632 360.824 568.301 362.458 567.824C363.797 567.433 368.718 566.89 373.393 566.617C378.171 566.338 382.769 565.809 383.893 565.409C384.993 565.017 387.581 564.534 389.643 564.335C391.706 564.136 394.068 563.668 394.893 563.294C401.46 560.321 403.279 559.344 404.109 558.344C404.47 557.909 404.976 557.553 405.234 557.553C405.665 557.553 408.957 555.149 410.542 553.678C410.912 553.334 411.367 553.051 411.554 553.049C411.741 553.046 413.056 551.978 414.477 550.674C415.898 549.37 417.665 547.853 418.404 547.303C419.143 546.753 421.61 544.615 423.888 542.553C426.165 540.49 429.085 537.903 430.376 536.803C431.667 535.703 433.099 534.438 433.558 533.991C441.607 526.171 442.209 526.026 460.393 527.528ZM447.073 587.38C446.875 589.812 446.37 592.614 445.951 593.606C445.533 594.597 445.038 597.522 444.852 600.106C444.667 602.689 444.203 605.703 443.823 606.803C443.442 607.903 442.9 611.278 442.617 614.303C442.335 617.328 441.895 620.182 441.64 620.645C441.011 621.786 440.152 627.264 440.147 630.161C440.145 631.458 439.819 633.258 439.424 634.161C439.028 635.064 438.588 636.365 438.446 637.053C437.878 639.795 437.198 640.141 432.417 640.128C429.319 640.119 427.866 639.918 427.575 639.459C426.841 638.301 427.137 632.413 428.115 628.737C428.637 626.776 429.213 623.289 429.394 620.987C429.575 618.686 430.037 615.79 430.42 614.553C430.802 613.315 431.364 610.165 431.667 607.553C431.97 604.94 432.526 601.678 432.902 600.303C433.278 598.928 433.743 596.003 433.935 593.803C434.343 589.125 434.835 588.218 438.022 586.258C439.326 585.456 440.843 584.516 441.393 584.169C446.805 580.752 447.577 581.188 447.073 587.38ZM430.844 591.854C431.013 592.294 430.716 594.375 430.185 596.479C429.654 598.582 429.033 601.203 428.806 602.303L428.393 604.303L404.423 604.433C382.249 604.553 375.688 604.233 381.453 603.313C382.52 603.143 384.518 602.478 385.893 601.837C387.268 601.195 389.265 600.541 390.33 600.383C391.396 600.225 392.633 599.771 393.08 599.374C393.704 598.821 395.985 598.606 402.893 598.451C413.534 598.213 415.349 597.77 425.643 592.905C428.252 591.672 429.491 591.181 430.215 591.092C430.392 591.071 430.675 591.413 430.844 591.854Z" fill="#191B35"/>
</svg>
